# xmcd
#
# Track frame offsets:
#	150
#	20117
#	39272
#	73580
#	91240
#	110625
#	128342
#	146005
#	167082
#	186132
#	207885
#	233957
#	250922
#	266700
#	284392
#	299960
#
# Disc length: 4201
#
# Revision: 2
# Processed by: cddbd v1.5.1PL0 Copyright (c) Steve Scherf et al.
# Submitted via: CDex 1.50beta10
# Normalized: r0:DSETVAR1,TDELIM( - ),TSWAP
#
DISCID=f6106710
DTITLE=Various Artist - Voyage 2 Cd2
DYEAR=2002
DGENRE=New Age
TTITLE0=Enya - Orinoco Flow
TTITLE1=Enigma - Sadness
TTITLE2=Kitaro - Matsuri
TTITLE3=Deep Forest - Sweet Lullaby
TTITLE4=Beautiful World - In Existence
TTITLE5=B-Tribe - You Won't See Me Cry
TTITLE6=Mike Oldfield - Sentinel
TTITLE7=Art Of Noise - Moments In Love
TTITLE8=Julee Cruise - Falling
TTITLE9=Vangelis - Conquest Of Paradise
TTITLE10=Dadawa - Sister Drum
TTITLE11=Middle Kingdom - Hong Ding Love Song
TTITLE12=Ofra Haza - Im Nin Alu
TTITLE13=Dario G - Sunchyme
TTITLE14=Rashni Pun Jabbi - Chant Of The Magic Flute
TTITLE15=Robert Miles - Children
EXTD=YEAR: 2002
EXTT0=
EXTT1=
EXTT2=
EXTT3=
EXTT4=
EXTT5=
EXTT6=
EXTT7=
EXTT8=
EXTT9=
EXTT10=
EXTT11=
EXTT12=
EXTT13=
EXTT14=
EXTT15=
PLAYORDER=
